<svg width="1200" height="236" viewBox="0 0 1200 236" fill="none" xmlns="http://www.w3.org/2000/svg" xmlns:xlink="http://www.w3.org/1999/xlink">
<rect width="1200" height="236" fill="#F9FAFB"/>
<rect x="849" y="77" width="280" height="95" rx="12" fill="#3B82F6"/>
<rect width="220.875" height="82.6416" transform="translate(879.062 83.1797)" fill="#3B82F6"/>
<path d="M890.907 135.896C888.819 135.896 886.875 135.56 885.075 134.888C883.299 134.192 881.715 133.196 880.323 131.9L882.915 128.696C885.387 130.928 888.099 132.044 891.051 132.044C892.515 132.044 893.655 131.732 894.471 131.108C895.287 130.484 895.695 129.704 895.695 128.768C895.695 128.096 895.491 127.556 895.083 127.148C894.699 126.716 894.111 126.356 893.319 126.068C892.551 125.756 891.435 125.432 889.971 125.096C888.051 124.64 886.479 124.148 885.255 123.62C884.031 123.068 883.059 122.336 882.339 121.424C881.643 120.488 881.295 119.276 881.295 117.788C881.295 116.372 881.667 115.1 882.411 113.972C883.179 112.82 884.235 111.92 885.579 111.272C886.947 110.624 888.483 110.3 890.187 110.3C892.059 110.3 893.763 110.6 895.299 111.2C896.835 111.776 898.251 112.628 899.547 113.756L897.099 117.068C896.019 116.132 894.867 115.412 893.643 114.908C892.443 114.404 891.231 114.152 890.007 114.152C888.783 114.152 887.775 114.476 886.983 115.124C886.215 115.748 885.831 116.504 885.831 117.392C885.831 118.352 886.263 119.084 887.127 119.588C887.991 120.068 889.479 120.548 891.591 121.028C894.447 121.676 896.595 122.54 898.035 123.62C899.475 124.676 900.195 126.248 900.195 128.336C900.195 129.824 899.823 131.144 899.079 132.296C898.359 133.424 897.291 134.312 895.875 134.96C894.483 135.584 892.827 135.896 890.907 135.896ZM920.461 116.888V135.5H916.033V133.052C915.457 133.94 914.653 134.648 913.621 135.176C912.613 135.68 911.497 135.932 910.273 135.932C908.929 135.932 907.729 135.632 906.673 135.032C905.641 134.408 904.825 133.556 904.225 132.476C903.649 131.372 903.361 130.124 903.361 128.732V116.888H907.609V127.868C907.609 129.14 907.969 130.184 908.689 131C909.433 131.792 910.381 132.188 911.533 132.188C912.805 132.188 913.873 131.804 914.737 131.036C915.601 130.244 916.033 129.284 916.033 128.156V116.888H920.461ZM935.512 116.456C937.144 116.456 938.608 116.876 939.904 117.716C941.2 118.532 942.22 119.684 942.964 121.172C943.708 122.636 944.08 124.304 944.08 126.176C944.08 128.048 943.708 129.728 942.964 131.216C942.22 132.704 941.2 133.868 939.904 134.708C938.608 135.524 937.144 135.932 935.512 135.932C934.168 135.932 932.932 135.644 931.804 135.068C930.7 134.468 929.788 133.64 929.068 132.584V141.692H924.676V116.888H929.068V119.804C929.788 118.748 930.7 117.932 931.804 117.356C932.932 116.756 934.168 116.456 935.512 116.456ZM934.324 132.188C935.908 132.188 937.204 131.624 938.212 130.496C939.22 129.368 939.724 127.928 939.724 126.176C939.724 124.424 939.22 122.996 938.212 121.892C937.204 120.764 935.908 120.2 934.324 120.2C932.788 120.2 931.528 120.764 930.544 121.892C929.56 122.996 929.068 124.424 929.068 126.176C929.068 127.328 929.284 128.36 929.716 129.272C930.172 130.184 930.796 130.904 931.588 131.432C932.404 131.936 933.316 132.188 934.324 132.188ZM958.188 116.456C959.82 116.456 961.284 116.876 962.58 117.716C963.876 118.532 964.896 119.684 965.64 121.172C966.384 122.636 966.756 124.304 966.756 126.176C966.756 128.048 966.384 129.728 965.64 131.216C964.896 132.704 963.876 133.868 962.58 134.708C961.284 135.524 959.82 135.932 958.188 135.932C956.844 135.932 955.608 135.644 954.48 135.068C953.376 134.468 952.464 133.64 951.744 132.584V141.692H947.352V116.888H951.744V119.804C952.464 118.748 953.376 117.932 954.48 117.356C955.608 116.756 956.844 116.456 958.188 116.456ZM957 132.188C958.584 132.188 959.88 131.624 960.888 130.496C961.896 129.368 962.4 127.928 962.4 126.176C962.4 124.424 961.896 122.996 960.888 121.892C959.88 120.764 958.584 120.2 957 120.2C955.464 120.2 954.204 120.764 953.22 121.892C952.236 122.996 951.744 124.424 951.744 126.176C951.744 127.328 951.96 128.36 952.392 129.272C952.848 130.184 953.472 130.904 954.264 131.432C955.08 131.936 955.992 132.188 957 132.188ZM978.848 135.932C977.048 135.932 975.38 135.5 973.844 134.636C972.308 133.748 971.084 132.56 970.172 131.072C969.284 129.56 968.84 127.928 968.84 126.176C968.84 124.424 969.284 122.804 970.172 121.316C971.084 119.828 972.308 118.652 973.844 117.788C975.38 116.9 977.048 116.456 978.848 116.456C980.648 116.456 982.304 116.9 983.816 117.788C985.352 118.652 986.564 119.828 987.452 121.316C988.34 122.804 988.784 124.424 988.784 126.176C988.784 127.928 988.34 129.56 987.452 131.072C986.564 132.56 985.352 133.748 983.816 134.636C982.304 135.5 980.648 135.932 978.848 135.932ZM978.848 132.188C979.856 132.188 980.792 131.924 981.656 131.396C982.52 130.844 983.204 130.112 983.708 129.2C984.212 128.264 984.464 127.256 984.464 126.176C984.464 125.096 984.212 124.1 983.708 123.188C983.204 122.276 982.52 121.556 981.656 121.028C980.792 120.476 979.856 120.2 978.848 120.2C977.816 120.2 976.868 120.476 976.004 121.028C975.14 121.556 974.444 122.276 973.916 123.188C973.412 124.1 973.16 125.096 973.16 126.176C973.16 127.256 973.412 128.264 973.916 129.2C974.444 130.112 975.14 130.844 976.004 131.396C976.868 131.924 977.816 132.188 978.848 132.188ZM996.249 120.416C996.849 119.192 997.737 118.232 998.913 117.536C1000.09 116.816 1001.42 116.456 1002.91 116.456V120.2C1000.92 120.2 999.309 120.74 998.085 121.82C996.861 122.9 996.249 124.328 996.249 126.104V135.5H991.857V116.888H996.249V120.416ZM1016.61 134.456C1016.09 134.912 1015.46 135.272 1014.74 135.536C1014.05 135.8 1013.34 135.932 1012.62 135.932C1011.08 135.932 1009.82 135.428 1008.84 134.42C1007.88 133.412 1007.4 132.128 1007.4 130.568V120.524H1004.7V116.888H1007.4V111.776H1011.65V116.888H1015.86V120.524H1011.65V130.028C1011.65 130.652 1011.83 131.168 1012.19 131.576C1012.55 131.984 1012.98 132.188 1013.48 132.188C1013.84 132.188 1014.19 132.128 1014.53 132.008C1014.89 131.864 1015.16 131.696 1015.35 131.504L1016.61 134.456Z" fill="white"/>
<path d="M1093.75 134.989L1093.65 134.884C1091.76 132.997 1089.2 131.938 1086.53 131.938C1083.86 131.938 1081.3 132.997 1079.42 134.884L1079.31 134.989H1069C1068.18 134.989 1067.39 135.315 1066.81 135.895C1066.23 136.475 1065.91 137.262 1065.91 138.083C1065.91 138.339 1065.94 138.594 1066 138.843L1055.62 135.382C1055.14 135.224 1054.64 135.181 1054.15 135.256C1053.65 135.331 1053.18 135.523 1052.78 135.815C1052.37 136.107 1052.04 136.491 1051.81 136.936C1051.59 137.381 1051.47 137.873 1051.47 138.373V138.441C1051.47 138.974 1051.6 139.498 1051.85 139.966C1052.11 140.434 1052.48 140.83 1052.93 141.117L1070.83 152.508C1071.88 153.175 1073.05 153.619 1074.28 153.811C1075.51 154.002 1076.77 153.938 1077.97 153.621L1093.75 149.469H1098.91V134.989H1093.75Z" fill="#F5D3BD"/>
<path d="M1098.91 133.958H1094.17C1092.11 132.001 1089.37 130.911 1086.53 130.911C1083.69 130.911 1080.95 132.001 1078.89 133.958H1069C1068.02 133.959 1067.08 134.305 1066.34 134.935C1065.59 135.565 1065.09 136.438 1064.93 137.4L1055.94 134.404C1055.32 134.194 1054.65 134.137 1053.99 134.237C1053.33 134.337 1052.71 134.591 1052.17 134.979C1051.64 135.366 1051.2 135.876 1050.9 136.466C1050.6 137.056 1050.44 137.71 1050.44 138.373V138.44C1050.43 139.147 1050.61 139.843 1050.95 140.463C1051.29 141.083 1051.78 141.607 1052.38 141.986L1070.28 153.378C1071.45 154.12 1072.76 154.614 1074.13 154.827C1075.49 155.041 1076.89 154.97 1078.23 154.619L1093.88 150.5H1098.91C1099.18 150.5 1099.44 150.391 1099.64 150.198C1099.83 150.004 1099.94 149.742 1099.94 149.469V134.989C1099.94 134.715 1099.83 134.453 1099.64 134.26C1099.44 134.066 1099.18 133.958 1098.91 133.958ZM1097.88 148.437H1093.75C1093.66 148.437 1093.57 148.449 1093.49 148.471L1077.71 152.624C1076.64 152.903 1075.53 152.959 1074.44 152.789C1073.35 152.62 1072.31 152.228 1071.38 151.638L1053.48 140.246C1053.18 140.053 1052.93 139.786 1052.76 139.47C1052.59 139.154 1052.5 138.8 1052.5 138.44V138.373C1052.5 137.811 1052.72 137.273 1053.12 136.875C1053.52 136.477 1054.05 136.252 1054.61 136.249C1054.84 136.25 1055.07 136.287 1055.29 136.36L1065.19 139.66C1065.5 140.415 1066.03 141.06 1066.71 141.513C1067.39 141.967 1068.18 142.208 1069 142.208H1079.31C1079.59 142.208 1079.85 142.099 1080.04 141.905C1080.24 141.712 1080.34 141.45 1080.34 141.176C1080.34 140.903 1080.24 140.64 1080.04 140.447C1079.85 140.254 1079.59 140.145 1079.31 140.145H1069C1068.54 140.146 1068.1 139.993 1067.73 139.712C1067.37 139.431 1067.11 139.037 1067 138.593V138.591C1066.92 138.286 1066.92 137.968 1066.98 137.661C1067.05 137.354 1067.18 137.065 1067.37 136.817C1067.57 136.569 1067.81 136.368 1068.09 136.23C1068.38 136.092 1068.69 136.02 1069 136.02H1079.31C1079.45 136.02 1079.58 135.993 1079.71 135.942C1079.83 135.89 1079.95 135.814 1080.04 135.718L1080.15 135.614C1081.84 133.923 1084.14 132.973 1086.53 132.973C1088.93 132.973 1091.22 133.923 1092.92 135.614L1093.02 135.718C1093.12 135.814 1093.23 135.89 1093.36 135.942C1093.48 135.993 1093.61 136.02 1093.75 136.02H1097.88V148.437Z" fill="black"/>
<path d="M1083.93 123.662L1076.48 131.113L1069.03 123.662C1068.69 123.327 1068.42 122.929 1068.24 122.491C1068.06 122.053 1067.97 121.583 1067.97 121.109C1067.97 120.152 1068.35 119.234 1069.03 118.557C1069.7 117.88 1070.62 117.5 1071.58 117.5C1072.05 117.5 1072.52 117.593 1072.96 117.775C1073.4 117.956 1073.8 118.222 1074.13 118.557L1076.48 120.903L1078.82 118.557C1079.16 118.222 1079.56 117.956 1079.99 117.775C1080.43 117.593 1080.9 117.5 1081.38 117.5C1082.33 117.5 1083.25 117.88 1083.93 118.557C1084.6 119.234 1084.98 120.152 1084.98 121.109C1084.98 121.583 1084.89 122.053 1084.71 122.491C1084.53 122.929 1084.26 123.327 1083.93 123.662Z" fill="#F16465"/>
<path fill-rule="evenodd" clip-rule="evenodd" d="M1058.31 120.415C1057.39 120.51 1056.46 120.461 1055.54 120.264L1055.54 120.262C1055.47 120.248 1055.4 120.234 1055.33 120.219C1052.86 119.686 1050.64 118.328 1049.04 116.367L1047.34 114.278L1039.09 110.554V95.085L1052.18 101.607L1068.01 101.305C1068.69 101.292 1069.37 101.429 1069.99 101.704C1070.61 101.98 1071.16 102.389 1071.61 102.902L1075.42 107.298C1075.9 107.842 1076.24 108.488 1076.42 109.186C1076.59 109.883 1076.61 110.613 1076.46 111.318L1075.9 113.929C1075.92 113.961 1075.94 113.993 1075.96 114.026C1076.19 114.382 1076.35 114.781 1076.42 115.199C1076.5 115.617 1076.49 116.045 1076.4 116.46C1076.23 117.249 1075.78 117.946 1075.12 118.414C1074.46 118.883 1073.65 119.088 1072.85 118.99L1069.56 118.589L1068.87 120.185V121.82L1064.87 122.499C1064.43 122.574 1063.98 122.518 1063.57 122.338C1063.31 122.224 1063.08 122.064 1062.88 121.867L1061.2 122.153C1060.82 122.217 1060.44 122.197 1060.07 122.096C1059.71 121.995 1059.37 121.814 1059.08 121.568C1058.79 121.321 1058.56 121.014 1058.41 120.668C1058.37 120.585 1058.34 120.501 1058.31 120.415Z" fill="#F5D3BD"/>
<path d="M1055.28 121.261C1055.29 121.265 1055.31 121.269 1055.33 121.273C1056 121.419 1056.7 121.492 1057.39 121.492C1057.44 121.492 1057.49 121.49 1057.53 121.49C1057.88 122.181 1058.44 122.742 1059.13 123.091C1059.82 123.44 1060.61 123.558 1061.37 123.427L1062.59 123.22C1063.3 123.721 1064.19 123.92 1065.05 123.773L1067.52 123.354C1067.73 123.734 1067.99 124.083 1068.3 124.391L1075.75 131.842C1075.84 131.937 1075.96 132.013 1076.08 132.065C1076.21 132.117 1076.34 132.144 1076.48 132.144C1076.61 132.144 1076.75 132.117 1076.87 132.065C1077 132.013 1077.11 131.937 1077.21 131.842L1084.66 124.391C1085.53 123.52 1086.02 122.34 1086.02 121.109C1086.02 119.878 1085.53 118.698 1084.66 117.828C1083.79 116.957 1082.61 116.468 1081.38 116.468C1080.14 116.468 1078.96 116.957 1078.09 117.828L1076.48 119.445L1076.04 119.008C1076.78 118.366 1077.27 117.49 1077.44 116.527C1077.61 115.564 1077.45 114.572 1076.98 113.716C1077 113.654 1077.02 113.59 1077.04 113.524L1077.47 111.535C1077.65 110.674 1077.63 109.782 1077.41 108.93C1077.19 108.077 1076.78 107.287 1076.2 106.621L1072.38 102.226C1071.84 101.598 1071.17 101.098 1070.41 100.761C1069.65 100.424 1068.82 100.257 1067.99 100.274L1052.41 100.571L1039.55 94.162C1039.4 94.0836 1039.22 94.0467 1039.05 94.0548C1038.87 94.0629 1038.7 94.1156 1038.55 94.2081C1038.4 94.3005 1038.28 94.4296 1038.19 94.5831C1038.11 94.7365 1038.06 94.9093 1038.06 95.085V110.554C1038.06 110.752 1038.12 110.946 1038.23 111.113C1038.33 111.28 1038.49 111.412 1038.67 111.493L1046.69 115.118L1048.24 117.019C1049.99 119.159 1052.41 120.642 1055.12 121.227C1055.17 121.239 1055.22 121.25 1055.28 121.261ZM1059.92 121.165C1060.35 121.051 1060.77 120.908 1061.18 120.737C1061.2 120.944 1061.23 121.149 1061.29 121.35L1061.03 121.394C1060.64 121.46 1060.24 121.378 1059.92 121.165H1059.92ZM1064.7 121.74C1064.46 121.781 1064.21 121.751 1063.99 121.652C1063.76 121.553 1063.57 121.391 1063.44 121.185C1063.34 121.02 1063.27 120.833 1063.24 120.637C1063.22 120.442 1063.24 120.244 1063.31 120.059C1063.37 119.849 1063.5 119.662 1063.67 119.523L1064.66 119.03L1067.29 119.35C1067.06 119.908 1066.94 120.506 1066.94 121.109C1066.94 121.193 1066.94 121.276 1066.94 121.359L1064.7 121.74ZM1075.75 121.632C1075.84 121.728 1075.96 121.804 1076.08 121.856C1076.21 121.908 1076.34 121.934 1076.48 121.934C1076.61 121.934 1076.75 121.908 1076.87 121.856C1077 121.804 1077.11 121.728 1077.21 121.632L1079.55 119.286C1079.79 119.047 1080.08 118.857 1080.39 118.727C1080.7 118.598 1081.04 118.531 1081.38 118.531C1081.71 118.531 1082.05 118.598 1082.36 118.727C1082.68 118.857 1082.96 119.047 1083.2 119.286C1083.44 119.526 1083.63 119.81 1083.76 120.123C1083.89 120.435 1083.95 120.771 1083.95 121.109C1083.95 121.448 1083.89 121.783 1083.76 122.096C1083.63 122.409 1083.44 122.693 1083.2 122.932L1076.48 129.654L1069.76 122.933C1069.32 122.502 1069.06 121.933 1069.01 121.326C1068.96 120.719 1069.12 120.114 1069.48 119.617L1072.73 120.014C1073.18 120.069 1073.63 120.052 1074.08 119.965L1075.75 121.632ZM1049.84 115.715L1048.14 113.627C1048.04 113.503 1047.91 113.405 1047.76 113.339L1040.12 109.888V96.7514L1051.72 102.53C1051.87 102.602 1052.03 102.639 1052.2 102.638L1068.03 102.336C1068.06 102.336 1068.08 102.336 1068.1 102.336C1068.62 102.335 1069.13 102.446 1069.6 102.66C1070.07 102.874 1070.49 103.187 1070.83 103.578L1074.65 107.974C1075.01 108.397 1075.28 108.9 1075.42 109.442C1075.55 109.985 1075.57 110.552 1075.45 111.1L1075.25 112.015C1074.9 111.829 1074.53 111.693 1074.14 111.61L1072.26 111.205L1072.48 110.197C1072.54 109.93 1072.49 109.65 1072.34 109.421C1072.19 109.191 1071.96 109.029 1071.69 108.972C1071.42 108.914 1071.14 108.965 1070.91 109.114C1070.68 109.262 1070.52 109.496 1070.46 109.763L1070.25 110.771L1068.77 110.453L1067.61 107.508C1067.51 107.253 1067.31 107.049 1067.06 106.94C1066.81 106.832 1066.52 106.827 1066.27 106.927C1066.01 107.028 1065.81 107.225 1065.7 107.476C1065.59 107.727 1065.59 108.011 1065.69 108.265L1066.35 109.931L1064.18 109.465C1064.05 109.435 1063.91 109.431 1063.77 109.454C1063.64 109.477 1063.51 109.527 1063.4 109.6C1063.28 109.673 1063.18 109.769 1063.1 109.881C1063.03 109.993 1062.97 110.12 1062.94 110.253C1062.91 110.387 1062.91 110.525 1062.94 110.659C1062.96 110.793 1063.01 110.921 1063.09 111.035C1063.16 111.15 1063.26 111.248 1063.37 111.324C1063.49 111.401 1063.61 111.454 1063.75 111.481L1073.71 113.626C1074.26 113.745 1074.75 114.074 1075.07 114.543C1075.39 115.012 1075.51 115.586 1075.42 116.145C1075.32 116.705 1075.02 117.206 1074.56 117.545C1074.11 117.884 1073.54 118.035 1072.98 117.966L1064.6 116.944C1064.4 116.92 1064.2 116.955 1064.02 117.045L1063.22 117.441C1063.22 117.442 1063.22 117.442 1063.22 117.443C1063 117.522 1062.79 117.626 1062.6 117.753L1060.88 118.612C1059.31 119.389 1057.54 119.62 1055.83 119.27C1055.8 119.262 1055.77 119.255 1055.74 119.249C1055.67 119.237 1055.61 119.224 1055.55 119.21C1053.31 118.724 1051.29 117.493 1049.84 115.715H1049.84Z" fill="black"/>
<path d="M284.288 79.244H305.628V84.876H290.976V92.048H301.756V97.196H290.976V110H284.288V79.244ZM316.964 110.66C314.412 110.66 312.168 110.205 310.232 109.296C308.325 108.357 306.844 107.052 305.788 105.38C304.761 103.679 304.248 101.699 304.248 99.44C304.248 97.24 304.761 95.2893 305.788 93.588C306.844 91.8867 308.325 90.5667 310.232 89.628C312.168 88.6893 314.412 88.22 316.964 88.22C319.487 88.22 321.701 88.6893 323.608 89.628C325.544 90.5667 327.025 91.8867 328.052 93.588C329.108 95.2893 329.636 97.24 329.636 99.44C329.636 101.699 329.108 103.679 328.052 105.38C327.025 107.052 325.559 108.357 323.652 109.296C321.745 110.205 319.516 110.66 316.964 110.66ZM316.964 105.468C318.753 105.468 320.176 104.925 321.232 103.84C322.288 102.725 322.816 101.259 322.816 99.44C322.816 97.5627 322.288 96.096 321.232 95.04C320.205 93.9547 318.783 93.412 316.964 93.412C315.145 93.412 313.708 93.9547 312.652 95.04C311.596 96.096 311.068 97.5627 311.068 99.44C311.068 101.259 311.596 102.725 312.652 103.84C313.737 104.925 315.175 105.468 316.964 105.468ZM333.358 88.88H339.782V91.916C340.633 90.8893 341.821 90.112 343.346 89.584C344.872 89.0267 346.602 88.748 348.538 88.748V93.808C346.514 93.808 344.725 94.116 343.17 94.732C341.645 95.348 340.589 96.2867 340.002 97.548V110H333.358V88.88ZM375.589 110.66C373.125 110.66 371.248 109.985 369.957 108.636C368.696 107.257 368.065 105.351 368.065 102.916V93.676H364.985V88.88H368.065V82.544H374.709V88.88H379.681V93.676H374.709V102.036C374.709 103.268 374.944 104.163 375.413 104.72C375.882 105.248 376.718 105.512 377.921 105.512C378.889 105.512 379.813 105.277 380.693 104.808V109.78C379.344 110.367 377.642 110.66 375.589 110.66ZM395.382 110.66C392.83 110.66 390.586 110.205 388.65 109.296C386.743 108.357 385.262 107.052 384.206 105.38C383.179 103.679 382.666 101.699 382.666 99.44C382.666 97.24 383.179 95.2893 384.206 93.588C385.262 91.8867 386.743 90.5667 388.65 89.628C390.586 88.6893 392.83 88.22 395.382 88.22C397.904 88.22 400.119 88.6893 402.026 89.628C403.962 90.5667 405.443 91.8867 406.47 93.588C407.526 95.2893 408.054 97.24 408.054 99.44C408.054 101.699 407.526 103.679 406.47 105.38C405.443 107.052 403.976 108.357 402.07 109.296C400.163 110.205 397.934 110.66 395.382 110.66ZM395.382 105.468C397.171 105.468 398.594 104.925 399.65 103.84C400.706 102.725 401.234 101.259 401.234 99.44C401.234 97.5627 400.706 96.096 399.65 95.04C398.623 93.9547 397.2 93.412 395.382 93.412C393.563 93.412 392.126 93.9547 391.07 95.04C390.014 96.096 389.486 97.5627 389.486 99.44C389.486 101.259 390.014 102.725 391.07 103.84C392.155 104.925 393.592 105.468 395.382 105.468ZM421.428 110.66C419.257 110.66 417.321 110.205 415.62 109.296C413.948 108.357 412.628 107.052 411.66 105.38C410.721 103.679 410.252 101.713 410.252 99.484C410.252 97.284 410.721 95.3333 411.66 93.632C412.598 91.9307 413.918 90.6107 415.62 89.672C417.321 88.704 419.257 88.22 421.428 88.22C423.012 88.22 424.464 88.44 425.784 88.88C427.104 89.32 428.218 89.9507 429.128 90.772V77.484H435.772V110H429.348V107.712C428.262 108.739 427.074 109.487 425.784 109.956C424.522 110.425 423.07 110.66 421.428 110.66ZM423.144 105.512C424.522 105.512 425.74 105.145 426.796 104.412C427.881 103.679 428.658 102.696 429.128 101.464V97.46C428.717 96.2573 427.954 95.2893 426.84 94.556C425.754 93.7933 424.522 93.412 423.144 93.412C421.354 93.412 419.888 93.9693 418.744 95.084C417.629 96.1987 417.072 97.6653 417.072 99.484C417.072 101.303 417.629 102.769 418.744 103.884C419.888 104.969 421.354 105.512 423.144 105.512ZM447.625 110.66C445.044 110.66 442.932 110.015 441.289 108.724C439.676 107.404 438.869 105.615 438.869 103.356C438.869 101.009 439.646 99.1907 441.201 97.9C442.756 96.58 444.956 95.92 447.801 95.92C449.062 95.92 450.265 96.052 451.409 96.316C452.553 96.58 453.565 96.9467 454.445 97.416V96.888C454.445 95.568 453.976 94.6 453.037 93.984C452.098 93.368 450.661 93.06 448.725 93.06C446.144 93.06 443.768 93.544 441.597 94.512V89.672C442.536 89.2613 443.753 88.924 445.249 88.66C446.745 88.3667 448.241 88.22 449.737 88.22C453.55 88.22 456.396 89.012 458.273 90.596C460.15 92.1507 461.089 94.336 461.089 97.152V110H454.841V108.064C453.052 109.795 450.646 110.66 447.625 110.66ZM449.429 106.26C450.514 106.26 451.497 106.055 452.377 105.644C453.257 105.233 453.946 104.661 454.445 103.928V101.816C452.949 100.819 451.306 100.32 449.517 100.32C448.285 100.32 447.332 100.584 446.657 101.112C446.012 101.611 445.689 102.359 445.689 103.356C445.689 104.295 446.012 105.013 446.657 105.512C447.302 106.011 448.226 106.26 449.429 106.26ZM469.319 118.712C468.439 118.712 467.529 118.653 466.591 118.536C465.681 118.419 464.992 118.257 464.523 118.052V113.08C465.373 113.403 466.312 113.564 467.339 113.564C468.395 113.564 469.187 113.329 469.715 112.86C470.272 112.391 470.727 111.657 471.079 110.66L471.783 108.856L462.631 88.88H469.319L475.303 103.444L480.979 88.88H487.623L478.647 111.452C477.649 113.945 476.417 115.779 474.951 116.952C473.484 118.125 471.607 118.712 469.319 118.712ZM490.345 107.404H497.209L492.765 116.556H486.693L490.345 107.404ZM284.288 131.244H290.976V162H284.288V131.244ZM310.972 140.88H317.396V143.916C318.246 142.889 319.434 142.112 320.96 141.584C322.485 141.027 324.216 140.748 326.152 140.748V145.808C324.128 145.808 322.338 146.116 320.784 146.732C319.258 147.348 318.202 148.287 317.616 149.548V162H310.972V140.88ZM341.12 162.66C337.072 162.66 333.889 161.692 331.572 159.756C329.254 157.791 328.096 155.048 328.096 151.528C328.096 148.037 329.122 145.28 331.176 143.256C333.258 141.232 336.221 140.22 340.064 140.22C342.586 140.22 344.728 140.689 346.488 141.628C348.248 142.567 349.582 143.872 350.492 145.544C351.401 147.187 351.856 149.049 351.856 151.132V153.816H334.432C334.901 156.515 337.424 157.864 342 157.864C343.349 157.864 344.742 157.747 346.18 157.512C347.617 157.277 348.864 156.955 349.919 156.544V161.208C348.893 161.648 347.573 162 345.96 162.264C344.346 162.528 342.733 162.66 341.12 162.66ZM345.564 149.504C345.476 148.096 344.948 147.011 343.98 146.248C343.012 145.456 341.677 145.06 339.976 145.06C338.304 145.06 336.984 145.456 336.016 146.248C335.048 147.04 334.52 148.125 334.432 149.504H345.564ZM363.406 162.66C360.825 162.66 358.713 162.015 357.07 160.724C355.457 159.404 354.65 157.615 354.65 155.356C354.65 153.009 355.428 151.191 356.982 149.9C358.537 148.58 360.737 147.92 363.582 147.92C364.844 147.92 366.046 148.052 367.19 148.316C368.334 148.58 369.346 148.947 370.226 149.416V148.888C370.226 147.568 369.757 146.6 368.818 145.984C367.88 145.368 366.442 145.06 364.506 145.06C361.925 145.06 359.549 145.544 357.378 146.512V141.672C358.317 141.261 359.534 140.924 361.03 140.66C362.526 140.367 364.022 140.22 365.518 140.22C369.332 140.22 372.177 141.012 374.054 142.596C375.932 144.151 376.87 146.336 376.87 149.152V162H370.622V160.064C368.833 161.795 366.428 162.66 363.406 162.66ZM365.21 158.26C366.296 158.26 367.278 158.055 368.158 157.644C369.038 157.233 369.728 156.661 370.226 155.928V153.816C368.73 152.819 367.088 152.32 365.298 152.32C364.066 152.32 363.113 152.584 362.438 153.112C361.793 153.611 361.47 154.359 361.47 155.356C361.47 156.295 361.793 157.013 362.438 157.512C363.084 158.011 364.008 158.26 365.21 158.26ZM381.268 129.484H387.912V162H381.268V129.484ZM392.526 129.484H399.17V162H392.526V129.484ZM409.592 170.712C408.712 170.712 407.803 170.653 406.864 170.536C405.955 170.419 405.265 170.257 404.796 170.052V165.08C405.647 165.403 406.585 165.564 407.612 165.564C408.668 165.564 409.46 165.329 409.988 164.86C410.545 164.391 411 163.657 411.352 162.66L412.056 160.856L402.904 140.88H409.592L415.576 155.444L421.252 140.88H427.896L418.92 163.452C417.923 165.945 416.691 167.779 415.224 168.952C413.757 170.125 411.88 170.712 409.592 170.712ZM446.108 140.88H452.532V143.476C453.5 142.391 454.644 141.584 455.964 141.056C457.314 140.499 458.722 140.22 460.188 140.22C463.063 140.22 465.204 140.997 466.612 142.552C468.05 144.077 468.768 146.145 468.768 148.756V162H462.124V149.504C462.124 146.776 460.863 145.412 458.34 145.412C457.226 145.412 456.184 145.691 455.216 146.248C454.248 146.776 453.427 147.568 452.752 148.624V162H446.108V140.88ZM485.323 162.66C481.275 162.66 478.092 161.692 475.775 159.756C473.457 157.791 472.299 155.048 472.299 151.528C472.299 148.037 473.325 145.28 475.379 143.256C477.461 141.232 480.424 140.22 484.267 140.22C486.789 140.22 488.931 140.689 490.691 141.628C492.451 142.567 493.785 143.872 494.695 145.544C495.604 147.187 496.059 149.049 496.059 151.132V153.816H478.635C479.104 156.515 481.627 157.864 486.203 157.864C487.552 157.864 488.945 157.747 490.383 157.512C491.82 157.277 493.067 156.955 494.123 156.544V161.208C493.096 161.648 491.776 162 490.163 162.264C488.549 162.528 486.936 162.66 485.323 162.66ZM489.767 149.504C489.679 148.096 489.151 147.011 488.183 146.248C487.215 145.456 485.88 145.06 484.179 145.06C482.507 145.06 481.187 145.456 480.219 146.248C479.251 147.04 478.723 148.125 478.635 149.504H489.767ZM511.877 162.66C507.829 162.66 504.647 161.692 502.329 159.756C500.012 157.791 498.853 155.048 498.853 151.528C498.853 148.037 499.88 145.28 501.933 143.256C504.016 141.232 506.979 140.22 510.821 140.22C513.344 140.22 515.485 140.689 517.245 141.628C519.005 142.567 520.34 143.872 521.249 145.544C522.159 147.187 522.613 149.049 522.613 151.132V153.816H505.189C505.659 156.515 508.181 157.864 512.757 157.864C514.107 157.864 515.5 157.747 516.937 157.512C518.375 157.277 519.621 156.955 520.677 156.544V161.208C519.651 161.648 518.331 162 516.717 162.264C515.104 162.528 513.491 162.66 511.877 162.66ZM516.321 149.504C516.233 148.096 515.705 147.011 514.737 146.248C513.769 145.456 512.435 145.06 510.733 145.06C509.061 145.06 507.741 145.456 506.773 146.248C505.805 147.04 505.277 148.125 505.189 149.504H516.321ZM536.584 162.66C534.413 162.66 532.477 162.205 530.776 161.296C529.104 160.357 527.784 159.052 526.816 157.38C525.877 155.679 525.408 153.713 525.408 151.484C525.408 149.284 525.877 147.333 526.816 145.632C527.755 143.931 529.075 142.611 530.776 141.672C532.477 140.704 534.413 140.22 536.584 140.22C538.168 140.22 539.62 140.44 540.94 140.88C542.26 141.32 543.375 141.951 544.284 142.772V129.484H550.928V162H544.504V159.712C543.419 160.739 542.231 161.487 540.94 161.956C539.679 162.425 538.227 162.66 536.584 162.66ZM538.3 157.512C539.679 157.512 540.896 157.145 541.952 156.412C543.037 155.679 543.815 154.696 544.284 153.464V149.46C543.873 148.257 543.111 147.289 541.996 146.556C540.911 145.793 539.679 145.412 538.3 145.412C536.511 145.412 535.044 145.969 533.9 147.084C532.785 148.199 532.228 149.665 532.228 151.484C532.228 153.303 532.785 154.769 533.9 155.884C535.044 156.969 536.511 157.512 538.3 157.512ZM576.741 170.712C575.861 170.712 574.951 170.653 574.013 170.536C573.103 170.419 572.414 170.257 571.945 170.052V165.08C572.795 165.403 573.734 165.564 574.761 165.564C575.817 165.564 576.609 165.329 577.137 164.86C577.694 164.391 578.149 163.657 578.501 162.66L579.205 160.856L570.053 140.88H576.741L582.725 155.444L588.401 140.88H595.045L586.069 163.452C585.071 165.945 583.839 167.779 582.373 168.952C580.906 170.125 579.029 170.712 576.741 170.712ZM606.831 162.66C604.279 162.66 602.035 162.205 600.099 161.296C598.192 160.357 596.711 159.052 595.655 157.38C594.628 155.679 594.115 153.699 594.115 151.44C594.115 149.24 594.628 147.289 595.655 145.588C596.711 143.887 598.192 142.567 600.099 141.628C602.035 140.689 604.279 140.22 606.831 140.22C609.354 140.22 611.568 140.689 613.475 141.628C615.411 142.567 616.892 143.887 617.919 145.588C618.975 147.289 619.503 149.24 619.503 151.44C619.503 153.699 618.975 155.679 617.919 157.38C616.892 159.052 615.426 160.357 613.519 161.296C611.612 162.205 609.383 162.66 606.831 162.66ZM606.831 157.468C608.62 157.468 610.043 156.925 611.099 155.84C612.155 154.725 612.683 153.259 612.683 151.44C612.683 149.563 612.155 148.096 611.099 147.04C610.072 145.955 608.65 145.412 606.831 145.412C605.012 145.412 603.575 145.955 602.519 147.04C601.463 148.096 600.935 149.563 600.935 151.44C600.935 153.259 601.463 154.725 602.519 155.84C603.604 156.925 605.042 157.468 606.831 157.468ZM631.63 162.66C628.755 162.66 626.599 161.883 625.162 160.328C623.724 158.744 623.006 156.647 623.006 154.036V140.88H629.65V153.332C629.65 156.089 630.926 157.468 633.478 157.468C634.592 157.468 635.634 157.204 636.602 156.676C637.57 156.148 638.376 155.356 639.022 154.3V140.88H645.666V162H639.242V159.448C638.303 160.533 637.159 161.34 635.81 161.868C634.49 162.396 633.096 162.66 631.63 162.66ZM650.296 140.88H656.72V143.916C657.57 142.889 658.758 142.112 660.284 141.584C661.809 141.027 663.54 140.748 665.476 140.748V145.808C663.452 145.808 661.662 146.116 660.108 146.732C658.582 147.348 657.526 148.287 656.94 149.548V162H650.296V140.88ZM683.683 129.484H690.327V143.3C691.324 142.273 692.453 141.511 693.715 141.012C694.976 140.484 696.325 140.22 697.763 140.22C700.637 140.22 702.779 140.997 704.187 142.552C705.624 144.077 706.343 146.145 706.343 148.756V162H699.699V149.504C699.699 146.776 698.437 145.412 695.915 145.412C694.8 145.412 693.759 145.691 692.791 146.248C691.823 146.776 691.001 147.568 690.327 148.624V162H683.683V129.484ZM722.897 162.66C718.849 162.66 715.666 161.692 713.349 159.756C711.032 157.791 709.873 155.048 709.873 151.528C709.873 148.037 710.9 145.28 712.953 143.256C715.036 141.232 717.998 140.22 721.841 140.22C724.364 140.22 726.505 140.689 728.265 141.628C730.025 142.567 731.36 143.872 732.269 145.544C733.178 147.187 733.633 149.049 733.633 151.132V153.816H716.209C716.678 156.515 719.201 157.864 723.777 157.864C725.126 157.864 726.52 157.747 727.957 157.512C729.394 157.277 730.641 156.955 731.697 156.544V161.208C730.67 161.648 729.35 162 727.737 162.264C726.124 162.528 724.51 162.66 722.897 162.66ZM727.341 149.504C727.253 148.096 726.725 147.011 725.757 146.248C724.789 145.456 723.454 145.06 721.753 145.06C720.081 145.06 718.761 145.456 717.793 146.248C716.825 147.04 716.297 148.125 716.209 149.504H727.341ZM737.308 129.484H743.952V162H737.308V129.484ZM748.565 140.88H754.989V143.212C757.131 141.217 759.771 140.22 762.909 140.22C765.109 140.22 767.045 140.689 768.717 141.628C770.419 142.537 771.739 143.843 772.677 145.544C773.616 147.216 774.085 149.167 774.085 151.396C774.085 153.596 773.616 155.547 772.677 157.248C771.739 158.949 770.419 160.284 768.717 161.252C767.045 162.191 765.109 162.66 762.909 162.66C761.413 162.66 759.991 162.44 758.641 162C757.292 161.56 756.148 160.929 755.209 160.108V171.636H748.565V140.88ZM761.237 157.468C763.027 157.468 764.479 156.911 765.593 155.796C766.737 154.681 767.309 153.215 767.309 151.396C767.309 149.577 766.737 148.125 765.593 147.04C764.479 145.955 763.027 145.412 761.237 145.412C759.859 145.412 758.627 145.779 757.541 146.512C756.456 147.245 755.679 148.213 755.209 149.416V153.42C755.649 154.652 756.412 155.635 757.497 156.368C758.612 157.101 759.859 157.468 761.237 157.468Z" fill="#111827"/>
<g filter="url(#filter0_dd_2178_7530)">
<circle cx="151.5" cy="118.5" r="80.5" fill="white"/>
<rect x="79" y="46" width="145" height="145" rx="72.5" fill="url(#pattern0)"/>
</g>
<defs>
<filter id="filter0_dd_2178_7530" x="59" y="36" width="185" height="185" filterUnits="userSpaceOnUse" color-interpolation-filters="sRGB">
<feFlood flood-opacity="0" result="BackgroundImageFix"/>
<feColorMatrix in="SourceAlpha" type="matrix" values="0 0 0 0 0 0 0 0 0 0 0 0 0 0 0 0 0 0 127 0" result="hardAlpha"/>
<feMorphology radius="2" operator="erode" in="SourceAlpha" result="effect1_dropShadow_2178_7530"/>
<feOffset dy="4"/>
<feGaussianBlur stdDeviation="3"/>
<feColorMatrix type="matrix" values="0 0 0 0 0 0 0 0 0 0 0 0 0 0 0 0 0 0 0.05 0"/>
<feBlend mode="normal" in2="BackgroundImageFix" result="effect1_dropShadow_2178_7530"/>
<feColorMatrix in="SourceAlpha" type="matrix" values="0 0 0 0 0 0 0 0 0 0 0 0 0 0 0 0 0 0 127 0" result="hardAlpha"/>
<feMorphology radius="3" operator="erode" in="SourceAlpha" result="effect2_dropShadow_2178_7530"/>
<feOffset dy="10"/>
<feGaussianBlur stdDeviation="7.5"/>
<feColorMatrix type="matrix" values="0 0 0 0 0 0 0 0 0 0 0 0 0 0 0 0 0 0 0.1 0"/>
<feBlend mode="normal" in2="effect1_dropShadow_2178_7530" result="effect2_dropShadow_2178_7530"/>
<feBlend mode="normal" in="SourceGraphic" in2="effect2_dropShadow_2178_7530" result="shape"/>
</filter>
<pattern id="pattern0" patternContentUnits="objectBoundingBox" width="1" height="1">
<use xlink:href="#image0_2178_7530" transform="scale(0.002)"/>
</pattern>
<image id="image0_2178_7530" width="500" height="500" xlink:href="https://raw.githubusercontent.com/slavarazum/slavarazum/1bcad07df0c8b8cdcbcbe263ff2bb61d9b5d124f/photo.png"/>
</defs>
</svg>
